<svg width="1600" height="520" viewBox="0 0 1600 520" fill="none" xmlns="http://www.w3.org/2000/svg">
  <title>BroadPivot Consulting LLC primary logo reversed</title>
  <g transform="translate(80 80)">
    <path d="M180 0 335.9 90v180L180 360 24.1 270V90L180 0Z" fill="#f7f4ec"/>
    <path d="M180 31.2 308.9 105.6v148.8L180 328.8 51.1 254.4V105.6L180 31.2Z" fill="#2f8fb0"/>
    <path d="M180 74c-36.6 29.4-55 59.9-55 91.5 0 19.8 5.8 36.3 17.5 49.6-23.9-4.6-48.2 1.6-72.8 18.6 22.3 26.6 49.1 39.9 80.2 39.9 12 0 22-1.8 30.1-5.4 8.1 3.6 18.1 5.4 30.1 5.4 31.1 0 57.9-13.3 80.2-39.9-24.6-17-48.9-23.2-72.8-18.6 11.7-13.3 17.5-29.8 17.5-49.6 0-31.6-18.4-62.1-55-91.5Z" fill="#f7f4ec"/>
    <path d="M180 136.4c22.4 0 40.6 18.2 40.6 40.6s-18.2 40.6-40.6 40.6-40.6-18.2-40.6-40.6 18.2-40.6 40.6-40.6Z" fill="#1f3a52"/>
    <path d="M180 79.6v56.8M180 217.6v56.8M99.5 177h39.9M220.6 177h39.9" stroke="#f7f4ec" stroke-width="14.8" stroke-linecap="round"/>
    <path d="M180 151v52" stroke="#2f8fb0" stroke-width="15.4" stroke-linecap="round"/>
  </g>
  <g transform="translate(505 145)">
    <text x="0" y="105" fill="#f7f4ec" font-family="Avenir Next, Helvetica Neue, Arial, sans-serif" font-size="104" font-weight="600" letter-spacing="-2">BroadPivot</text>
    <text x="0" y="190" fill="#f7f4ec" font-family="Avenir Next, Helvetica Neue, Arial, sans-serif" font-size="72" font-weight="400" letter-spacing="3">Consulting LLC</text>
    <path d="M0 230h565" stroke="#d87a42" stroke-width="8" stroke-linecap="round"/>
    <text x="0" y="287" fill="#f7f4ec" font-family="Avenir Next, Helvetica Neue, Arial, sans-serif" font-size="28" font-weight="500" letter-spacing="5">PRACTICAL SOLUTIONS FOR COMPLEX WORK</text>
  </g>
</svg>
