<svg width="512" height="512" viewBox="0 0 512 512" fill="none" xmlns="http://www.w3.org/2000/svg">
  <title>BroadPivot Consulting icon</title>
  <path d="M256 28 453 142v228L256 484 59 370V142L256 28Z" fill="#1f3a52"/>
  <path d="M256 68 418 162v188L256 444 94 350V162L256 68Z" fill="#2f8fb0"/>
  <path d="M256 82c-58 49-87 95-87 138 0 27 8 49 25 67-41-16-80-13-119 10 30 45 67 67 112 67 24 0 44-6 60-18-11 38-8 76 11 114 18-38 22-76 11-114 16 12 36 18 60 18 45 0 82-22 112-67-39-23-78-26-119-10 17-18 25-40 25-67 0-43-29-89-87-138Z" fill="#f7f4ec"/>
  <path d="M256 219c32 0 58 26 58 58s-26 58-58 58-58-26-58-58 26-58 58-58Z" fill="#1f3a52"/>
  <path d="M231 191c0-14 11-25 25-25s25 11 25 25m-78-19c-19-17-38-20-56-9m162 9c19-17 38-20 56-9" stroke="#1f3a52" stroke-width="20" stroke-linecap="round"/>
  <path d="M145 278c41-21 78-21 111 1m111-1c-41-21-78-21-111 1m-98 41c39-10 72-8 98 6m98-8c-39-10-72-7-98 7" stroke="#2f8fb0" stroke-width="19" stroke-linecap="round"/>
  <path d="M212 286h88M221 325h70M232 363h48" stroke="#f7f4ec" stroke-width="18" stroke-linecap="round"/>
</svg>
