<svg width="512" height="512" viewBox="0 0 512 512" fill="none" xmlns="http://www.w3.org/2000/svg">
  <title>BroadPivot Consulting simplified favicon</title>
  <path d="M256 32 450 144v224L256 480 62 368V144L256 32Z" fill="#1f3a52"/>
  <path d="M256 86 403 171v170L256 426 109 341V171L256 86Z" fill="#2f8fb0"/>
  <path d="M194 168h78c46 0 76 24 76 61 0 23-12 41-35 52 28 9 43 29 43 59 0 43-33 68-86 68h-76V168Zm70 96c22 0 36-11 36-28 0-18-13-28-36-28h-25v56h25Zm4 104c25 0 39-12 39-32 0-19-14-31-40-31h-28v63h29Z" fill="#f7f4ec"/>
</svg>
