<svg width="1600" height="520" viewBox="0 0 1600 520" fill="none" xmlns="http://www.w3.org/2000/svg">
  <title>BroadPivot Consulting LLC primary logo</title>
  <g transform="translate(80 80)">
    <path d="M180 0 335.9 90v180L180 360 24.1 270V90L180 0Z" fill="#1f3a52"/>
    <path d="M180 31.2 308.9 105.6v148.8L180 328.8 51.1 254.4V105.6L180 31.2Z" fill="#2f8fb0"/>
    <path d="M180 43c-46.1 39-69 75.8-69 110.4 0 21.1 6.6 38.7 19.7 52.8-32.3-12.9-63.7-10.3-94.2 7.9 23.5 35.3 52.9 53 88.2 53 19 0 34.8-4.8 47.4-14.5-8.8 29.9-5.9 59.9 8.7 90.1 14.6-30.2 17.5-60.2 8.7-90.1 12.6 9.7 28.4 14.5 47.4 14.5 35.3 0 64.7-17.7 88.2-53-30.5-18.2-61.9-20.8-94.2-7.9 13.1-14.1 19.7-31.7 19.7-52.8 0-34.6-22.9-71.4-69-110.4Z" fill="#f7f4ec"/>
    <path d="M180 151.5c25.2 0 45.6 20.7 45.6 46.1 0 25.9-20.4 46.7-45.6 46.7s-45.6-20.8-45.6-46.7c0-25.4 20.4-46.1 45.6-46.1Z" fill="#1f3a52"/>
    <path d="M160.5 129.5c0-10.9 8.9-19.4 19.5-19.4s19.5 8.5 19.5 19.4m-61.8-14.9c-15-13.6-29.8-16.1-44.2-7.2m128.8 7.2c15-13.6 29.8-16.1 44.2-7.2" stroke="#1f3a52" stroke-width="16" stroke-linecap="round"/>
    <path d="M91.6 197c32.4-16.7 61.9-16.5 88.4.6m88.4-.6c-32.4-16.7-61.9-16.5-88.4.6m-78 32.5c31.2-7.8 57.2-6.3 78 5.1m78-6.5c-31.2-7.8-57.2-5.8-78 5.8" stroke="#2f8fb0" stroke-width="15" stroke-linecap="round"/>
    <path d="M145.6 202.3h68.8M152.8 233.5h54.4M161.2 264h37.6" stroke="#f7f4ec" stroke-width="14" stroke-linecap="round"/>
  </g>
  <g transform="translate(505 145)">
    <text x="0" y="105" fill="#1f3a52" font-family="Avenir Next, Helvetica Neue, Arial, sans-serif" font-size="104" font-weight="600" letter-spacing="-2">BroadPivot</text>
    <text x="0" y="190" fill="#1f3a52" font-family="Avenir Next, Helvetica Neue, Arial, sans-serif" font-size="72" font-weight="400" letter-spacing="3">Consulting LLC</text>
    <path d="M0 230h565" stroke="#a8552a" stroke-width="8" stroke-linecap="round"/>
    <text x="0" y="287" fill="#5a5343" font-family="Avenir Next, Helvetica Neue, Arial, sans-serif" font-size="34" font-weight="500" letter-spacing="9">PIVOT WITH PURPOSE</text>
  </g>
</svg>
